<?xml version="1.0" encoding="utf-8"?>
<!-- Generator: Adobe Illustrator 17.1.0, SVG Export Plug-In . SVG Version: 6.00 Build 0)  -->
<!DOCTYPE svg PUBLIC "-//W3C//DTD SVG 1.1//EN" "http://www.w3.org/Graphics/SVG/1.1/DTD/svg11.dtd">
<svg version="1.1" id="logo-black" xmlns="http://www.w3.org/2000/svg" xmlns:xlink="http://www.w3.org/1999/xlink" x="0px" y="0px"
	 viewBox="0 663.8 595.3 178.1" enable-background="new 0 663.8 595.3 178.1" xml:space="preserve">
<rect y="663.8" width="334.2" height="178.1"/>
<g>
	<rect x="329.8" y="667.2" fill="#FFFFFF" width="262" height="171.3"/>
	<path d="M588.5,670.6v164.5H333.3V670.6H588.5 M595.3,663.8H326.4v178.1h268.9V663.8L595.3,663.8z"/>
</g>
<g enable-background="new    ">
	<path fill="#FFFFFF" d="M21.1,783.8v-57.1c0-11.1,11.1-20.2,23.9-20.2c11.7,0,21.6,9,21.6,20.2v13.8H55.3v-13.8
		c0-4.8-4.8-8.9-10.3-8.9c-6.7,0-12.5,4.1-12.5,8.9v57.1c0,4.8,6.1,8.3,12.5,8.3c5.3,0,10.3-3.5,10.3-8.3V761h-12v-11.1h23.2v33.9
		c0,11-10.3,19.3-21.6,19.3C32.6,803.1,21.1,794.8,21.1,783.8z"/>
	<path fill="#FFFFFF" d="M91.4,802.3H80.2v-95.7h11.2V802.3z"/>
	<path fill="#FFFFFF" d="M130.6,802.3h-11.2v-84.5h-15.2v-11.2h41.5v11.2h-15V802.3z"/>
	<path fill="#FFFFFF" d="M199.1,802.3h-11.4v-40.9h-18.6v40.9h-11.4v-95.7h11.4v43.6h18.6v-43.6h11.4V802.3z"/>
	<path fill="#FFFFFF" d="M244.1,782.8v-76.3h11.4v76.3c0,11-9.7,20-21.4,20c-11.6,0-21.2-9-21.2-20v-76.3h11.2v76.3
		c0,4.8,4.6,8.8,10,8.8S244.1,787.6,244.1,782.8z"/>
	<path fill="#FFFFFF" d="M270.3,706.5h21.7c11.8,0,21.6,9.6,21.6,21.4v12.1c0,5.9-2.3,10.8-6,14.6c5.9,4.3,9.4,11.4,9.4,18.8v5.6
		c0,13-10.4,23.2-23.3,23.2h-23.3V706.5z M281.5,717.8v32.5h10.4c5.5,0,10.2-4.7,10.2-10.2V728c0-5.5-4.7-10.2-10.2-10.2H281.5z
		 M281.5,761.5V791h12.1c6.6,0,12-5.4,12-12v-5.6c0-6.6-5.4-12-12-12H281.5z"/>
</g>
<g enable-background="new    ">
	<path d="M365.9,802.2h-11.2v-95.7h11.2v32.3c7.9-10.7,16.1-22,23.9-32.3h14.1l-27.5,37.1l25.2,58.6h-12.1l-21.1-48l-2.5,3.5V802.2z
		"/>
	<path d="M450.1,802.2l-5.5-23.7h-15.8l-5.3,23.7h-11.6l19.3-95.7h10.4l20,95.7H450.1z M442.5,767.2l-6-28.8
		c-1.9,9.4-3.5,18.3-5.6,28.8H442.5z"/>
	<path d="M483.1,802.2h-11.2v-95.7h11.2V802.2z"/>
	<path d="M497.2,783.7v-57.1c0-11.1,11.1-20.2,23.9-20.2c11.7,0,21.6,9,21.6,20.2v13.8h-11.2v-13.8c0-4.8-4.8-8.9-10.3-8.9
		c-6.7,0-12.5,4.1-12.5,8.9v57.1c0,4.8,6.1,8.3,12.5,8.3c5.3,0,10.3-3.5,10.3-8.3v-22.7h-12v-11.1h23.2v33.9
		c0,11-10.3,19.3-21.6,19.3C508.7,803,497.2,794.7,497.2,783.7z"/>
	<path d="M567.6,802.2h-11.2v-95.7h11.2V802.2z"/>
</g>
</svg>
