<?xml version="1.0" encoding="utf-8"?>
<!-- Generator: Adobe Illustrator 17.1.0, SVG Export Plug-In . SVG Version: 6.00 Build 0)  -->
<!DOCTYPE svg PUBLIC "-//W3C//DTD SVG 1.1//EN" "http://www.w3.org/Graphics/SVG/1.1/DTD/svg11.dtd">
<svg version="1.1" id="Layer_1" xmlns="http://www.w3.org/2000/svg" xmlns:xlink="http://www.w3.org/1999/xlink" x="0px" y="0px"
	 viewBox="27.9 221 539.5 400" enable-background="new 27.9 221 539.5 400" xml:space="preserve">
<g>
	<g>
		<path fill="#333333" d="M37.2,284.2c-5.6,0-9.3-3.7-9.3-9.3v-44.6c0-5.6,3.7-9.3,9.3-9.3h520.9c5.6,0,9.3,3.7,9.3,9.3v44.6
			c0,5.6-3.7,9.3-9.3,9.3H37.2z"/>
		<rect x="37.2" y="230.3" fill="#333333" width="520.9" height="44.6"/>
	</g>
	<g>
		<path fill="#333333" d="M37.2,451.6c-5.6,0-9.3-3.7-9.3-9.3v-44.6c0-5.6,3.7-9.3,9.3-9.3h520.9c5.6,0,9.3,3.7,9.3,9.3v44.6
			c0,5.6-3.7,9.3-9.3,9.3H37.2z"/>
		<rect x="37.2" y="397.7" fill="#333333" width="520.9" height="44.6"/>
	</g>
	<g>
		<path fill="#333333" d="M37.2,620.9c-5.6,0-9.3-3.7-9.3-9.3V567c0-5.6,3.7-9.3,9.3-9.3h520.9c5.6,0,9.3,3.7,9.3,9.3v44.6
			c0,5.6-3.7,9.3-9.3,9.3H37.2z"/>
		<rect x="37.2" y="567" fill="#333333" width="520.9" height="44.6"/>
	</g>
</g>
</svg>
