<?xml version="1.0" encoding="utf-8"?>
<!-- Generator: Adobe Illustrator 17.1.0, SVG Export Plug-In . SVG Version: 6.00 Build 0)  -->
<!DOCTYPE svg PUBLIC "-//W3C//DTD SVG 1.1//EN" "http://www.w3.org/Graphics/SVG/1.1/DTD/svg11.dtd">
<svg version="1.1" id="logo-white" xmlns="http://www.w3.org/2000/svg" xmlns:xlink="http://www.w3.org/1999/xlink" x="0px" y="0px"
	 viewBox="0 331.906 595.28 178.077" enable-background="new 0 331.906 595.28 178.077" xml:space="preserve">
<g>
	<path fill="#FFFFFF" d="M588.251,338.936v164.019H333.827V338.936H588.251 M595.28,331.906H325.798v178.077H595.28V331.906
		L595.28,331.906z"/>
</g>
<text transform="matrix(1 0 0 1 348.7565 470.3937)" fill="#FFFFFF" font-family="'Mohave-Bold'" font-size="117.1562" letter-spacing="1">KAIGI</text>
<g>
	<path fill="#FFFFFF" d="M299.866,408.18v-12.067c0-5.506-4.686-10.193-10.193-10.193h-10.427v32.455h10.427
		C295.18,418.372,299.866,413.686,299.866,408.18z"/>
	<path fill="#FFFFFF" d="M291.314,429.622h-12.067v29.526h12.067c6.561,0,11.95-5.392,11.95-11.952v-5.624
		C303.263,435.011,297.874,429.622,291.314,429.622z"/>
	<path fill="#FFFFFF" d="M0,331.906v178.077h327.06V331.906H0z M68.907,408.648H57.66v-13.824c0-4.803-4.803-8.904-10.31-8.904
		c-6.68,0-12.538,4.1-12.538,8.904v57.06c0,4.803,6.092,8.32,12.538,8.32c5.272,0,10.31-3.517,10.31-8.32v-22.728H45.71v-11.132
		h23.197v33.861c0,11.013-10.31,19.333-21.557,19.333c-12.419,0-23.902-8.32-23.902-19.333v-57.06
		c0-11.13,11.13-20.153,23.902-20.153c11.716,0,21.557,9.023,21.557,20.153V408.648z M92.9,470.394H81.653V374.67H92.9V470.394z
		 M146.511,385.92h-14.996v84.474h-11.247V385.92h-15.23v-11.249h41.476v11.249H146.511z M199.852,470.394h-11.366v-40.892h-18.628
		v40.89h-11.366v-95.721h11.366v43.587h18.628v-43.587h11.366V470.394z M255.302,450.946c0,11.013-9.724,20.034-21.442,20.034
		c-11.598,0-21.205-9.021-21.205-20.034V374.67h11.247v76.276c0,4.803,4.569,8.787,9.958,8.787s10.075-3.983,10.075-8.787V374.67
		h11.366v76.276H255.302z M314.63,447.195c0,13.007-10.427,23.197-23.314,23.197H268v-95.721h21.674
		c11.833,0,21.559,9.609,21.559,21.44v12.067c0,5.86-2.343,10.781-5.975,14.647c5.858,4.335,9.372,11.364,9.372,18.745V447.195z"/>
</g>
</svg>
