<?xml version="1.0" encoding="utf-8"?>
<!-- Generator: Adobe Illustrator 17.1.0, SVG Export Plug-In . SVG Version: 6.00 Build 0)  -->
<!DOCTYPE svg PUBLIC "-//W3C//DTD SVG 1.1//EN" "http://www.w3.org/Graphics/SVG/1.1/DTD/svg11.dtd">
<svg version="1.1" id="logo-white" xmlns="http://www.w3.org/2000/svg" xmlns:xlink="http://www.w3.org/1999/xlink" x="0px"
	 y="0px" viewBox="0 0 254.054 76" enable-background="new 0 0 254.054 76" xml:space="preserve">
<g>
	<path fill="#FFFFFF" d="M251.054,3v70H142.471V3H251.054 M254.054,0H139.471v76h114.583V0L254.054,0z"/>
</g>
<text transform="matrix(1 0 0 1 148.8421 59.1041)" fill="#FFFFFF" font-family="'Mohave-Bold'" font-size="50" letter-spacing="1">KAIGI</text>
<g>
	<path fill="#FFFFFF" d="M127.977,32.552v-5.15c0-2.35-2-4.35-4.35-4.35h-4.45v13.851h4.45
		C125.977,36.902,127.977,34.902,127.977,32.552z"/>
	<path fill="#FFFFFF" d="M124.327,41.703h-5.15v12.601h5.15c2.8,0,5.1-2.301,5.1-5.101v-2.4
		C129.427,44.003,127.127,41.703,124.327,41.703z"/>
	<path fill="#FFFFFF" d="M0,0v76h139.583V0H0z M29.408,32.752h-4.8v-5.9c0-2.05-2.05-3.8-4.4-3.8c-2.851,0-5.351,1.75-5.351,3.8
		v24.352c0,2.05,2.6,3.551,5.351,3.551c2.25,0,4.4-1.501,4.4-3.551v-9.7h-5.1v-4.751h9.9v14.451c0,4.7-4.4,8.251-9.2,8.251
		c-5.3,0-10.201-3.551-10.201-8.251V26.852c0-4.75,4.75-8.601,10.201-8.601c5,0,9.2,3.851,9.2,8.601V32.752z M39.648,59.104h-4.8
		V18.251h4.8V59.104z M62.528,23.052h-6.4v36.052h-4.8V23.052h-6.5v-4.801h17.701V23.052z M85.293,59.104h-4.851V41.652h-7.95
		v17.451h-4.851V18.251h4.851v18.602h7.95V18.251h4.851V59.104z M108.958,50.804c0,4.7-4.15,8.55-9.151,8.55
		c-4.95,0-9.05-3.85-9.05-8.55V18.251h4.8v32.553c0,2.05,1.95,3.75,4.25,3.75c2.3,0,4.3-1.7,4.3-3.75V18.251h4.851V50.804z
		 M134.278,49.203c0,5.551-4.45,9.9-9.95,9.9h-9.951V18.251h9.25c5.05,0,9.201,4.101,9.201,9.15v5.15c0,2.501-1,4.601-2.55,6.251
		c2.5,1.85,4,4.85,4,8V49.203z"/>
</g>
</svg>
