<?xml version="1.0" encoding="utf-8"?>
<!-- Generator: Adobe Illustrator 17.1.0, SVG Export Plug-In . SVG Version: 6.00 Build 0)  -->
<!DOCTYPE svg PUBLIC "-//W3C//DTD SVG 1.1//EN" "http://www.w3.org/Graphics/SVG/1.1/DTD/svg11.dtd">
<svg version="1.1" id="logo-white" xmlns="http://www.w3.org/2000/svg" xmlns:xlink="http://www.w3.org/1999/xlink" x="0px" y="0px"
	 viewBox="0 663.8 595.3 178.1" enable-background="new 0 663.8 595.3 178.1" xml:space="preserve">
<g>
	<path fill="#FFFFFF" d="M588.3,670.8v164H333.8v-164H588.3 M595.3,663.8H325.8v178.1h269.5V663.8L595.3,663.8z"/>
</g>
<g enable-background="new    ">
	<path fill="#FFFFFF" d="M365.9,802.3h-11.2v-95.7h11.2v32.3c7.8-10.7,16.1-22,23.9-32.3h14.1l-27.5,37.1l25.2,58.6h-12.1l-21.1-48
		l-2.5,3.5V802.3z"/>
	<path fill="#FFFFFF" d="M449,802.3l-5.5-23.7h-15.8l-5.3,23.7h-11.6l19.3-95.7h10.4l20,95.7H449z M441.4,767.3l-6-28.8
		c-1.9,9.4-3.5,18.3-5.6,28.8H441.4z"/>
	<path fill="#FFFFFF" d="M480.9,802.3h-11.2v-95.7h11.2V802.3z"/>
	<path fill="#FFFFFF" d="M494,783.8v-57.1c0-11.1,11.1-20.2,23.9-20.2c11.7,0,21.6,9,21.6,20.2v13.8h-11.2v-13.8
		c0-4.8-4.8-8.9-10.3-8.9c-6.7,0-12.5,4.1-12.5,8.9v57.1c0,4.8,6.1,8.3,12.5,8.3c5.3,0,10.3-3.5,10.3-8.3v-22.7h-12v-11.1h23.2v33.9
		c0,11-10.3,19.3-21.6,19.3C505.5,803.1,494,794.8,494,783.8z"/>
	<path fill="#FFFFFF" d="M563.3,802.3H552v-95.7h11.2V802.3z"/>
</g>
<g>
	<path fill="#FFFFFF" d="M299.9,740.1V728c0-5.5-4.7-10.2-10.2-10.2h-10.4v32.5h10.4C295.2,750.3,299.9,745.6,299.9,740.1z"/>
	<path fill="#FFFFFF" d="M291.3,761.5h-12.1v29.5h12.1c6.6,0,12-5.4,12-12v-5.6C303.3,766.9,297.9,761.5,291.3,761.5z"/>
	<path fill="#FFFFFF" d="M0,663.8v178.1h327.1V663.8H0z M68.9,740.6H57.7v-13.8c0-4.8-4.8-8.9-10.3-8.9c-6.7,0-12.5,4.1-12.5,8.9
		v57.1c0,4.8,6.1,8.3,12.5,8.3c5.3,0,10.3-3.5,10.3-8.3v-22.7h-12v-11.1h23.2v33.9c0,11-10.3,19.3-21.6,19.3
		c-12.4,0-23.9-8.3-23.9-19.3v-57.1c0-11.1,11.1-20.2,23.9-20.2c11.7,0,21.6,9,21.6,20.2V740.6z M92.9,802.3H81.7v-95.7h11.2V802.3z
		 M146.5,717.8h-15v84.5h-11.2v-84.5H105v-11.2h41.5L146.5,717.8L146.5,717.8z M199.9,802.3h-11.4v-40.9h-18.6v40.9h-11.4v-95.7
		h11.4v43.6h18.6v-43.6h11.4V802.3z M255.3,782.9c0,11-9.7,20-21.4,20c-11.6,0-21.2-9-21.2-20v-76.3h11.2v76.3c0,4.8,4.6,8.8,10,8.8
		s10.1-4,10.1-8.8v-76.3h11.4L255.3,782.9L255.3,782.9z M314.6,779.1c0,13-10.4,23.2-23.3,23.2H268v-95.7h21.7
		c11.8,0,21.6,9.6,21.6,21.4v12.1c0,5.9-2.3,10.8-6,14.6c5.9,4.3,9.4,11.4,9.4,18.7V779.1z"/>
</g>
</svg>
